<svg width="41" height="17" viewBox="0 0 41 17" fill="none" xmlns="http://www.w3.org/2000/svg">
<g clip-path="url(#clip0_159_35)">
<path fill-rule="evenodd" clip-rule="evenodd" d="M19.5274 2.63427V6.71727H22.0454C22.6454 6.71727 23.1414 6.51527 23.5334 6.11227C23.9364 5.71027 24.1384 5.23027 24.1384 4.67527C24.1384 4.13127 23.9364 3.65727 23.5334 3.25327C23.1414 2.84027 22.6454 2.63327 22.0454 2.63327H19.5274V2.63427ZM19.5274 8.15427V12.8903H18.0234V1.19727H22.0134C23.0264 1.19727 23.8864 1.53427 24.5954 2.20927C25.3154 2.88427 25.6754 3.70627 25.6754 4.67527C25.6754 5.66627 25.3154 6.49427 24.5954 7.15727C23.8984 7.82227 23.0364 8.15327 22.0124 8.15327H19.5274V8.15427V8.15427ZM27.1954 10.4413C27.1954 10.8333 27.3614 11.1593 27.6944 11.4213C28.0264 11.6813 28.4164 11.8123 28.8624 11.8123C29.4954 11.8123 30.0584 11.5783 30.5544 11.1113C31.0514 10.6423 31.2984 10.0923 31.2984 9.46127C30.8294 9.09127 30.1754 8.90627 29.3364 8.90627C28.7264 8.90627 28.2164 9.05427 27.8084 9.34827C27.3994 9.64227 27.1954 10.0053 27.1954 10.4413ZM29.1414 4.62627C30.2534 4.62627 31.1304 4.92327 31.7744 5.51627C32.4164 6.11027 32.7384 6.92427 32.7384 7.95827V12.8903H31.2994V11.7803H31.2344C30.6124 12.6943 29.7844 13.1523 28.7484 13.1523C27.8664 13.1523 27.1274 12.8903 26.5334 12.3683C25.9394 11.8453 25.6424 11.1923 25.6424 10.4083C25.6424 9.58027 25.9554 8.92227 26.5824 8.43227C27.2094 7.94227 28.0454 7.69727 29.0924 7.69727C29.9844 7.69727 30.7214 7.86027 31.2984 8.18727V7.84327C31.2984 7.32127 31.0914 6.87727 30.6774 6.51327C30.2786 6.15432 29.759 5.959 29.2224 5.96627C28.3824 5.96627 27.7184 6.31927 27.2274 7.02827L25.9034 6.19427C26.6334 5.14927 27.7134 4.62627 29.1414 4.62627M40.9944 4.88827L35.9744 16.4183H34.4214L36.2854 12.3843L32.9834 4.88827H34.6184L37.0054 10.6373H37.0374L39.3594 4.88727L40.9944 4.88827Z" fill="#1E1E1E"/>
<path fill-rule="evenodd" clip-rule="evenodd" d="M13.4483 7.13358C13.4483 6.66058 13.4083 6.20358 13.3323 5.76758H6.98828V8.35558H10.6223C10.5478 8.76908 10.3903 9.16321 10.1593 9.51417C9.92834 9.86513 9.62862 10.1656 9.27828 10.3976V12.0776H11.4473C12.7173 10.9076 13.4483 9.17758 13.4483 7.13358" fill="#4285F4"/>
<path fill-rule="evenodd" clip-rule="evenodd" d="M6.98852 13.6996C8.80452 13.6996 10.3325 13.1046 11.4475 12.0786L9.27852 10.3976C8.67552 10.8036 7.89852 11.0406 6.98852 11.0406C5.23452 11.0406 3.74452 9.8586 3.21252 8.2666H0.978516V9.9976C1.53894 11.111 2.39765 12.0468 3.45886 12.7006C4.52006 13.3545 5.74205 13.7007 6.98852 13.7006" fill="#34A853"/>
<path fill-rule="evenodd" clip-rule="evenodd" d="M3.21272 8.26687C2.93209 7.4325 2.93209 6.52924 3.21272 5.69487V3.96387H0.978721C0.506452 4.89904 0.260834 5.93221 0.261721 6.97987C0.261721 8.06487 0.521721 9.08987 0.978721 9.99687L3.21272 8.26587V8.26687Z" fill="#FABB05"/>
<path fill-rule="evenodd" clip-rule="evenodd" d="M6.98947 2.92072C7.98147 2.92072 8.86947 3.26072 9.56947 3.92872V3.92972L11.4895 2.01172C10.3255 0.927719 8.80547 0.261719 6.99047 0.261719C5.74411 0.261552 4.52219 0.607599 3.461 1.26127C2.3998 1.91494 1.54104 2.85053 0.980469 3.96372L3.21447 5.69472C3.74647 4.10272 5.23647 2.92072 6.99047 2.92072" fill="#E94235"/>
</g>
<defs>
<clipPath id="clip0_159_35">
<rect width="41" height="17" fill="white"/>
</clipPath>
</defs>
</svg>
