<svg width="24" height="15" viewBox="0 0 24 15" fill="none" xmlns="http://www.w3.org/2000/svg">
<path fill-rule="evenodd" clip-rule="evenodd" d="M0 2.691C0 1.205 1.239 0 2.766 0H21.234C22.762 0 24 1.205 24 2.691V12.309C24 13.795 22.762 15 21.234 15H2.766C1.239 15 0 13.795 0 12.309V2.691ZM1.02 12.291C1.02 13.235 1.803 14.001 2.77 14.001H11.983V1H2.77C1.803 1 1.02 1.765 1.02 2.708V12.292V12.291ZM14.769 12.187H17.041V8.617H17.066C17.496 9.399 18.356 9.689 19.15 9.689C21.107 9.689 22.154 8.074 22.154 6.131C22.154 4.542 21.157 2.812 19.339 2.812C18.304 2.812 17.345 3.229 16.889 4.15H16.864V2.965H14.769V12.187ZM19.806 6.182C19.806 7.229 19.288 7.948 18.43 7.948C17.672 7.948 17.04 7.228 17.04 6.27C17.04 5.286 17.596 4.554 18.43 4.554C19.315 4.554 19.806 5.311 19.806 6.181V6.182Z" fill="#04337B"/>
<path fill-rule="evenodd" clip-rule="evenodd" d="M10.1535 2.96252V8.67252C10.1535 11.3295 8.82353 12.1875 6.13653 12.1875C5.27088 12.1903 4.41058 12.0518 3.58953 11.7775L3.70453 10.0135C4.40753 10.3485 4.99653 10.5465 5.95753 10.5465C7.28753 10.5465 8.00453 9.93952 8.00453 8.67252V8.32452H7.97853C7.42853 9.08152 6.66053 9.42952 5.73853 9.42952C3.90853 9.42952 2.76953 8.08952 2.76953 6.17752C2.76953 4.25352 3.70453 2.81152 5.77653 2.81152C6.76153 2.81152 7.55653 3.33452 8.04353 4.12952H8.06853V2.96152L10.1535 2.96252ZM5.15053 6.13952C5.15053 7.14452 5.76653 7.71552 6.45653 7.71552C7.27453 7.71552 7.92853 7.04552 7.92853 6.05152C7.92853 5.33152 7.49353 4.52452 6.45653 4.52452C5.59953 4.52452 5.15053 5.25852 5.15053 6.13952V6.13952Z" fill="#EE3525"/>
</svg>
