<svg width="32" height="32" viewBox="0 0 32 32" fill="none" xmlns="http://www.w3.org/2000/svg">
<path fill-rule="evenodd" clip-rule="evenodd" d="M0 0H32V32H0V0Z" fill="#00B14F"/>
<path d="M17.393 6C19.446 6 20.926 6.226 22.165 6.729L22.285 6.779V8.493C21.07 7.758 19.56 7.43 17.392 7.43C15.0716 7.42886 12.8383 8.31421 11.149 9.905C9.519 11.435 8.569 13.493 8.529 15.567L8.527 15.705V16.198C8.527 18.444 9.362 20.53 10.879 22.072C12.403 23.621 14.471 24.472 16.704 24.472C20.077 24.472 21.824 23.277 22.58 22.536L22.615 22.5L22.622 22.495V16.273H16.333V14.745H24.149V22.97L24.08 23.061C23.889 23.301 23.31 23.949 22.233 24.592C20.663 25.526 18.803 26.001 16.704 26.001C14.092 26.001 11.651 24.992 9.83 23.158C8.04 21.356 7.04 18.946 7 16.358V15.703C7 10.444 11.76 6 17.393 6ZM17.393 8.555C19.328 8.555 20.803 8.865 22.15 9.557L22.284 9.627V11.434C21.099 10.461 19.722 10.084 17.393 10.084C14.062 10.084 11.243 12.603 11.183 15.607L11.181 15.704V16.197C11.181 17.718 11.754 19.137 12.796 20.191C13.3061 20.7095 13.9149 21.1207 14.5864 21.4003C15.2579 21.6799 15.9786 21.8222 16.706 21.819C18.256 21.819 19.208 21.544 19.761 21.341L20.054 21.228L20.068 21.223V18.925H16.334V17.397H21.497V21.985L21.463 22.017C21.083 22.376 19.769 23.347 16.705 23.347C12.855 23.347 9.717 20.204 9.655 16.315L9.654 16.197V15.704C9.654 13.814 10.467 12.022 11.943 10.661C13.4301 9.29844 15.3761 8.54645 17.393 8.555V8.555Z" fill="white"/>
</svg>
